<svg width="1363" height="167" viewBox="0 0 1363 167" fill="none" xmlns="http://www.w3.org/2000/svg">
<rect width="1363" height="167" rx="15" fill="#F0F0F0"/>
<path d="M0 15C0 6.71573 6.71573 0 15 0H37V167H15C6.71573 167 0 160.284 0 152V15Z" fill="#424241"/>
<path d="M100.906 50.9219L93.3945 48.2383V45.0859L103.602 49.375V51.6367L100.906 50.9219ZM93.3945 53.1719L100.918 50.4297L103.602 49.7852V52.0352L93.3945 56.3242V53.1719ZM120.781 53.5352C120.781 53.2305 120.734 52.957 120.641 52.7148C120.555 52.4648 120.391 52.2383 120.148 52.0352C119.906 51.8242 119.566 51.6172 119.129 51.4141C118.691 51.2109 118.125 51 117.43 50.7812C116.656 50.5312 115.922 50.25 115.227 49.9375C114.539 49.625 113.93 49.2617 113.398 48.8477C112.875 48.4258 112.461 47.9375 112.156 47.3828C111.859 46.8281 111.711 46.1836 111.711 45.4492C111.711 44.7383 111.867 44.0938 112.18 43.5156C112.492 42.9297 112.93 42.4297 113.492 42.0156C114.055 41.5938 114.719 41.2695 115.484 41.043C116.258 40.8164 117.105 40.7031 118.027 40.7031C119.285 40.7031 120.383 40.9297 121.32 41.3828C122.258 41.8359 122.984 42.457 123.5 43.2461C124.023 44.0352 124.285 44.9375 124.285 45.9531H120.793C120.793 45.4531 120.688 45.0156 120.477 44.6406C120.273 44.2578 119.961 43.957 119.539 43.7383C119.125 43.5195 118.602 43.4102 117.969 43.4102C117.359 43.4102 116.852 43.5039 116.445 43.6914C116.039 43.8711 115.734 44.1172 115.531 44.4297C115.328 44.7344 115.227 45.0781 115.227 45.4609C115.227 45.75 115.297 46.0117 115.438 46.2461C115.586 46.4805 115.805 46.6992 116.094 46.9023C116.383 47.1055 116.738 47.2969 117.16 47.4766C117.582 47.6562 118.07 47.832 118.625 48.0039C119.555 48.2852 120.371 48.6016 121.074 48.9531C121.785 49.3047 122.379 49.6992 122.855 50.1367C123.332 50.5742 123.691 51.0703 123.934 51.625C124.176 52.1797 124.297 52.8086 124.297 53.5117C124.297 54.2539 124.152 54.918 123.863 55.5039C123.574 56.0898 123.156 56.5859 122.609 56.9922C122.062 57.3984 121.41 57.707 120.652 57.918C119.895 58.1289 119.047 58.2344 118.109 58.2344C117.266 58.2344 116.434 58.125 115.613 57.9062C114.793 57.6797 114.047 57.3398 113.375 56.8867C112.711 56.4336 112.18 55.8555 111.781 55.1523C111.383 54.4492 111.184 53.6172 111.184 52.6562H114.711C114.711 53.1875 114.793 53.6367 114.957 54.0039C115.121 54.3711 115.352 54.668 115.648 54.8945C115.953 55.1211 116.312 55.2852 116.727 55.3867C117.148 55.4883 117.609 55.5391 118.109 55.5391C118.719 55.5391 119.219 55.4531 119.609 55.2812C120.008 55.1094 120.301 54.8711 120.488 54.5664C120.684 54.2617 120.781 53.918 120.781 53.5352ZM140.703 49.0703V49.8789C140.703 51.1758 140.527 52.3398 140.176 53.3711C139.824 54.4023 139.328 55.2812 138.688 56.0078C138.047 56.7266 137.281 57.2773 136.391 57.6602C135.508 58.043 134.527 58.2344 133.449 58.2344C132.379 58.2344 131.398 58.043 130.508 57.6602C129.625 57.2773 128.859 56.7266 128.211 56.0078C127.562 55.2812 127.059 54.4023 126.699 53.3711C126.348 52.3398 126.172 51.1758 126.172 49.8789V49.0703C126.172 47.7656 126.348 46.6016 126.699 45.5781C127.051 44.5469 127.547 43.668 128.188 42.9414C128.836 42.2148 129.602 41.6602 130.484 41.2773C131.375 40.8945 132.355 40.7031 133.426 40.7031C134.504 40.7031 135.484 40.8945 136.367 41.2773C137.258 41.6602 138.023 42.2148 138.664 42.9414C139.312 43.668 139.812 44.5469 140.164 45.5781C140.523 46.6016 140.703 47.7656 140.703 49.0703ZM137.152 49.8789V49.0469C137.152 48.1406 137.07 47.3438 136.906 46.6562C136.742 45.9688 136.5 45.3906 136.18 44.9219C135.859 44.4531 135.469 44.1016 135.008 43.8672C134.547 43.625 134.02 43.5039 133.426 43.5039C132.832 43.5039 132.305 43.625 131.844 43.8672C131.391 44.1016 131.004 44.4531 130.684 44.9219C130.371 45.3906 130.133 45.9688 129.969 46.6562C129.805 47.3438 129.723 48.1406 129.723 49.0469V49.8789C129.723 50.7773 129.805 51.5742 129.969 52.2695C130.133 52.957 130.375 53.5391 130.695 54.0156C131.016 54.4844 131.406 54.8398 131.867 55.082C132.328 55.3242 132.855 55.4453 133.449 55.4453C134.043 55.4453 134.57 55.3242 135.031 55.082C135.492 54.8398 135.879 54.4844 136.191 54.0156C136.504 53.5391 136.742 52.957 136.906 52.2695C137.07 51.5742 137.152 50.7773 137.152 49.8789ZM152.117 53.5352C152.117 53.2305 152.07 52.957 151.977 52.7148C151.891 52.4648 151.727 52.2383 151.484 52.0352C151.242 51.8242 150.902 51.6172 150.465 51.4141C150.027 51.2109 149.461 51 148.766 50.7812C147.992 50.5312 147.258 50.25 146.562 49.9375C145.875 49.625 145.266 49.2617 144.734 48.8477C144.211 48.4258 143.797 47.9375 143.492 47.3828C143.195 46.8281 143.047 46.1836 143.047 45.4492C143.047 44.7383 143.203 44.0938 143.516 43.5156C143.828 42.9297 144.266 42.4297 144.828 42.0156C145.391 41.5938 146.055 41.2695 146.82 41.043C147.594 40.8164 148.441 40.7031 149.363 40.7031C150.621 40.7031 151.719 40.9297 152.656 41.3828C153.594 41.8359 154.32 42.457 154.836 43.2461C155.359 44.0352 155.621 44.9375 155.621 45.9531H152.129C152.129 45.4531 152.023 45.0156 151.812 44.6406C151.609 44.2578 151.297 43.957 150.875 43.7383C150.461 43.5195 149.938 43.4102 149.305 43.4102C148.695 43.4102 148.188 43.5039 147.781 43.6914C147.375 43.8711 147.07 44.1172 146.867 44.4297C146.664 44.7344 146.562 45.0781 146.562 45.4609C146.562 45.75 146.633 46.0117 146.773 46.2461C146.922 46.4805 147.141 46.6992 147.43 46.9023C147.719 47.1055 148.074 47.2969 148.496 47.4766C148.918 47.6562 149.406 47.832 149.961 48.0039C150.891 48.2852 151.707 48.6016 152.41 48.9531C153.121 49.3047 153.715 49.6992 154.191 50.1367C154.668 50.5742 155.027 51.0703 155.27 51.625C155.512 52.1797 155.633 52.8086 155.633 53.5117C155.633 54.2539 155.488 54.918 155.199 55.5039C154.91 56.0898 154.492 56.5859 153.945 56.9922C153.398 57.3984 152.746 57.707 151.988 57.918C151.23 58.1289 150.383 58.2344 149.445 58.2344C148.602 58.2344 147.77 58.125 146.949 57.9062C146.129 57.6797 145.383 57.3398 144.711 56.8867C144.047 56.4336 143.516 55.8555 143.117 55.1523C142.719 54.4492 142.52 53.6172 142.52 52.6562H146.047C146.047 53.1875 146.129 53.6367 146.293 54.0039C146.457 54.3711 146.688 54.668 146.984 54.8945C147.289 55.1211 147.648 55.2852 148.062 55.3867C148.484 55.4883 148.945 55.5391 149.445 55.5391C150.055 55.5391 150.555 55.4531 150.945 55.2812C151.344 55.1094 151.637 54.8711 151.824 54.5664C152.02 54.2617 152.117 53.918 152.117 53.5352Z" fill="#888888"/>
<path d="M101.822 115.1L108.194 86.0078H111.995L114.061 88.4907L107.271 118H103.074L101.822 115.1ZM100.13 86.0078L105.513 115.319L104.129 118H99.2729L92.4834 86.0078H100.13ZM117.554 115.166L122.894 86.0078H130.518L123.729 118H118.895L117.554 115.166ZM114.742 86.0078L121.268 115.275L119.949 118H115.752L108.809 88.4468L110.962 86.0078H114.742ZM141.021 94.2256V118H133.594V94.2256H141.021ZM133.155 88.0952C133.155 87.0405 133.536 86.1763 134.297 85.5024C135.059 84.8286 136.048 84.4917 137.264 84.4917C138.479 84.4917 139.468 84.8286 140.23 85.5024C140.992 86.1763 141.373 87.0405 141.373 88.0952C141.373 89.1499 140.992 90.0142 140.23 90.688C139.468 91.3618 138.479 91.6987 137.264 91.6987C136.048 91.6987 135.059 91.3618 134.297 90.688C133.536 90.0142 133.155 89.1499 133.155 88.0952ZM153.062 100.114V118H145.657V94.2256H152.579L153.062 100.114ZM160.093 94.0498L159.961 100.927C159.668 100.898 159.273 100.861 158.775 100.817C158.277 100.773 157.859 100.751 157.522 100.751C156.658 100.751 155.911 100.854 155.281 101.059C154.666 101.25 154.153 101.542 153.743 101.938C153.348 102.319 153.055 102.802 152.864 103.388C152.688 103.974 152.608 104.655 152.623 105.432L151.282 104.553C151.282 102.956 151.436 101.506 151.744 100.202C152.066 98.8838 152.52 97.7485 153.106 96.7964C153.692 95.8296 154.402 95.0898 155.237 94.5771C156.072 94.0498 157.01 93.7861 158.05 93.7861C158.416 93.7861 158.775 93.8081 159.126 93.8521C159.493 93.896 159.815 93.9619 160.093 94.0498ZM173.716 118.439C171.783 118.439 170.054 118.139 168.531 117.539C167.007 116.923 165.718 116.081 164.664 115.012C163.624 113.942 162.825 112.712 162.269 111.32C161.727 109.929 161.456 108.457 161.456 106.904V106.069C161.456 104.326 161.697 102.714 162.181 101.235C162.664 99.7407 163.382 98.437 164.334 97.3237C165.286 96.2104 166.48 95.3462 167.916 94.731C169.351 94.1011 171.021 93.7861 172.925 93.7861C174.61 93.7861 176.119 94.0571 177.452 94.5991C178.785 95.1411 179.913 95.9175 180.835 96.9282C181.773 97.939 182.483 99.1621 182.967 100.598C183.465 102.033 183.714 103.645 183.714 105.432V108.442H164.29V103.806H176.485V103.234C176.5 102.443 176.36 101.77 176.067 101.213C175.789 100.656 175.379 100.231 174.837 99.9385C174.295 99.6455 173.636 99.499 172.859 99.499C172.054 99.499 171.387 99.6748 170.86 100.026C170.347 100.378 169.944 100.861 169.651 101.477C169.373 102.077 169.175 102.773 169.058 103.564C168.941 104.355 168.882 105.19 168.882 106.069V106.904C168.882 107.783 169 108.581 169.234 109.299C169.483 110.017 169.834 110.632 170.289 111.145C170.757 111.643 171.314 112.031 171.958 112.309C172.618 112.587 173.365 112.727 174.2 112.727C175.21 112.727 176.207 112.536 177.188 112.155C178.169 111.774 179.012 111.145 179.715 110.266L183.077 114.265C182.593 114.953 181.905 115.62 181.011 116.264C180.132 116.909 179.078 117.436 177.847 117.846C176.617 118.242 175.24 118.439 173.716 118.439ZM195.799 118H188.35V92.292C188.35 90.4463 188.724 88.8936 189.471 87.6338C190.218 86.374 191.272 85.4219 192.635 84.7773C193.997 84.1182 195.608 83.7886 197.469 83.7886C198.113 83.7886 198.721 83.8325 199.292 83.9204C199.864 84.0083 200.42 84.1182 200.962 84.25L200.984 89.6992C200.721 89.626 200.45 89.5747 200.171 89.5454C199.893 89.5161 199.549 89.5015 199.139 89.5015C198.421 89.5015 197.813 89.6113 197.315 89.8311C196.817 90.0361 196.436 90.3511 196.172 90.7759C195.923 91.186 195.799 91.6914 195.799 92.292V118ZM200.413 94.2256V99.3672H184.922V94.2256H200.413ZM210.542 100.114V118H203.138V94.2256H210.059L210.542 100.114ZM217.574 94.0498L217.442 100.927C217.149 100.898 216.753 100.861 216.255 100.817C215.757 100.773 215.34 100.751 215.003 100.751C214.139 100.751 213.392 100.854 212.762 101.059C212.146 101.25 211.634 101.542 211.224 101.938C210.828 102.319 210.535 102.802 210.345 103.388C210.169 103.974 210.088 104.655 210.103 105.432L208.763 104.553C208.763 102.956 208.917 101.506 209.224 100.202C209.546 98.8838 210 97.7485 210.586 96.7964C211.172 95.8296 211.883 95.0898 212.718 94.5771C213.553 94.0498 214.49 93.7861 215.53 93.7861C215.896 93.7861 216.255 93.8081 216.607 93.8521C216.973 93.896 217.295 93.9619 217.574 94.0498ZM231.812 112.023V102.224C231.812 101.55 231.717 100.971 231.526 100.488C231.336 100.004 231.036 99.6309 230.625 99.3672C230.215 99.0889 229.666 98.9497 228.978 98.9497C228.421 98.9497 227.945 99.0449 227.549 99.2354C227.154 99.4258 226.854 99.7114 226.648 100.092C226.443 100.473 226.341 100.957 226.341 101.542H218.936C218.936 100.444 219.178 99.4258 219.661 98.4883C220.159 97.5361 220.862 96.7085 221.771 96.0054C222.693 95.3022 223.792 94.7603 225.066 94.3794C226.355 93.9839 227.791 93.7861 229.373 93.7861C231.263 93.7861 232.947 94.1011 234.427 94.731C235.921 95.3608 237.1 96.3057 237.964 97.5654C238.829 98.8105 239.261 100.378 239.261 102.268V112.001C239.261 113.554 239.349 114.733 239.524 115.539C239.7 116.33 239.949 117.026 240.271 117.626V118H232.845C232.493 117.268 232.229 116.374 232.054 115.319C231.893 114.25 231.812 113.151 231.812 112.023ZM232.713 103.476L232.757 107.431H229.483C228.794 107.431 228.208 107.526 227.725 107.717C227.256 107.907 226.875 108.171 226.583 108.508C226.304 108.83 226.099 109.196 225.967 109.606C225.85 110.017 225.792 110.449 225.792 110.903C225.792 111.342 225.894 111.738 226.099 112.089C226.319 112.426 226.612 112.69 226.978 112.88C227.344 113.071 227.754 113.166 228.208 113.166C229.029 113.166 229.725 113.012 230.296 112.705C230.882 112.382 231.329 111.994 231.636 111.54C231.944 111.086 232.098 110.661 232.098 110.266L233.724 113.298C233.431 113.884 233.094 114.477 232.713 115.078C232.347 115.678 231.885 116.235 231.329 116.748C230.787 117.246 230.12 117.656 229.329 117.978C228.538 118.286 227.579 118.439 226.451 118.439C224.986 118.439 223.638 118.139 222.408 117.539C221.192 116.938 220.218 116.103 219.485 115.034C218.753 113.95 218.387 112.705 218.387 111.298C218.387 110.068 218.606 108.969 219.046 108.002C219.5 107.036 220.181 106.215 221.089 105.542C221.998 104.868 223.155 104.355 224.561 104.003C225.967 103.652 227.623 103.476 229.527 103.476H232.713ZM250.84 99.2573V118H243.436V94.2256H250.379L250.84 99.2573ZM249.939 105.3L248.248 105.344C248.248 103.674 248.445 102.136 248.841 100.729C249.236 99.3232 249.822 98.1001 250.599 97.0601C251.375 96.02 252.327 95.2144 253.455 94.6431C254.598 94.0718 255.916 93.7861 257.41 93.7861C258.45 93.7861 259.395 93.9473 260.245 94.2695C261.094 94.5771 261.827 95.0679 262.442 95.7417C263.057 96.4009 263.526 97.2651 263.848 98.3345C264.185 99.3892 264.354 100.656 264.354 102.136V118H256.949V103.081C256.949 102.07 256.832 101.308 256.597 100.795C256.377 100.283 256.055 99.9385 255.63 99.7627C255.206 99.5869 254.686 99.499 254.07 99.499C253.426 99.499 252.847 99.6455 252.334 99.9385C251.822 100.231 251.382 100.642 251.016 101.169C250.665 101.682 250.394 102.29 250.203 102.993C250.027 103.696 249.939 104.465 249.939 105.3ZM263.519 105.3L261.453 105.344C261.453 103.674 261.636 102.136 262.002 100.729C262.383 99.3232 262.947 98.1001 263.694 97.0601C264.456 96.02 265.401 95.2144 266.529 94.6431C267.657 94.0718 268.968 93.7861 270.462 93.7861C271.546 93.7861 272.542 93.9473 273.45 94.2695C274.358 94.5918 275.142 95.1118 275.801 95.8296C276.46 96.5474 276.973 97.4995 277.339 98.686C277.706 99.8579 277.889 101.308 277.889 103.037V118H270.462V103.037C270.462 102.055 270.345 101.315 270.11 100.817C269.891 100.305 269.568 99.9604 269.144 99.7847C268.719 99.5942 268.213 99.499 267.627 99.499C266.924 99.499 266.316 99.6455 265.804 99.9385C265.291 100.231 264.859 100.642 264.507 101.169C264.17 101.682 263.921 102.29 263.76 102.993C263.599 103.696 263.519 104.465 263.519 105.3ZM293.643 118.439C291.709 118.439 289.981 118.139 288.458 117.539C286.934 116.923 285.645 116.081 284.59 115.012C283.55 113.942 282.752 112.712 282.195 111.32C281.653 109.929 281.382 108.457 281.382 106.904V106.069C281.382 104.326 281.624 102.714 282.107 101.235C282.591 99.7407 283.309 98.437 284.261 97.3237C285.213 96.2104 286.407 95.3462 287.842 94.731C289.278 94.1011 290.948 93.7861 292.852 93.7861C294.537 93.7861 296.045 94.0571 297.378 94.5991C298.711 95.1411 299.839 95.9175 300.762 96.9282C301.7 97.939 302.41 99.1621 302.894 100.598C303.392 102.033 303.641 103.645 303.641 105.432V108.442H284.217V103.806H296.412V103.234C296.426 102.443 296.287 101.77 295.994 101.213C295.716 100.656 295.306 100.231 294.764 99.9385C294.222 99.6455 293.562 99.499 292.786 99.499C291.98 99.499 291.314 99.6748 290.787 100.026C290.274 100.378 289.871 100.861 289.578 101.477C289.3 102.077 289.102 102.773 288.985 103.564C288.868 104.355 288.809 105.19 288.809 106.069V106.904C288.809 107.783 288.926 108.581 289.161 109.299C289.41 110.017 289.761 110.632 290.215 111.145C290.684 111.643 291.241 112.031 291.885 112.309C292.544 112.587 293.292 112.727 294.126 112.727C295.137 112.727 296.133 112.536 297.115 112.155C298.096 111.774 298.938 111.145 299.642 110.266L303.003 114.265C302.52 114.953 301.832 115.62 300.938 116.264C300.059 116.909 299.004 117.436 297.774 117.846C296.543 118.242 295.167 118.439 293.643 118.439ZM319.109 111.32C319.109 110.91 318.97 110.559 318.692 110.266C318.428 109.958 317.959 109.68 317.286 109.431C316.612 109.167 315.667 108.903 314.451 108.64C313.294 108.391 312.203 108.061 311.177 107.651C310.167 107.241 309.28 106.743 308.519 106.157C307.757 105.571 307.156 104.875 306.717 104.069C306.292 103.264 306.08 102.341 306.08 101.301C306.08 100.29 306.292 99.3379 306.717 98.4443C307.156 97.5361 307.793 96.7378 308.628 96.0493C309.478 95.3462 310.511 94.7969 311.727 94.4014C312.942 93.9912 314.327 93.7861 315.879 93.7861C318.018 93.7861 319.864 94.1157 321.417 94.7749C322.969 95.4194 324.163 96.3276 324.998 97.4995C325.848 98.6567 326.272 99.9971 326.272 101.521H318.868C318.868 100.92 318.765 100.407 318.56 99.9824C318.37 99.5576 318.055 99.2354 317.615 99.0156C317.176 98.7812 316.59 98.6641 315.857 98.6641C315.345 98.6641 314.876 98.7593 314.451 98.9497C314.041 99.1401 313.711 99.4038 313.462 99.7407C313.213 100.078 313.089 100.473 313.089 100.927C313.089 101.25 313.162 101.542 313.309 101.806C313.47 102.055 313.711 102.29 314.034 102.509C314.356 102.714 314.766 102.905 315.264 103.081C315.762 103.242 316.363 103.388 317.066 103.52C318.663 103.813 320.157 104.23 321.548 104.772C322.94 105.314 324.068 106.083 324.932 107.08C325.811 108.076 326.25 109.416 326.25 111.101C326.25 112.155 326.009 113.129 325.525 114.023C325.042 114.902 324.346 115.678 323.438 116.352C322.53 117.011 321.438 117.524 320.164 117.89C318.89 118.256 317.454 118.439 315.857 118.439C313.587 118.439 311.668 118.037 310.101 117.231C308.533 116.411 307.347 115.385 306.541 114.155C305.75 112.91 305.354 111.65 305.354 110.375H312.254C312.283 111.108 312.459 111.708 312.781 112.177C313.118 112.646 313.565 112.99 314.122 113.21C314.678 113.43 315.323 113.54 316.055 113.54C316.729 113.54 317.286 113.444 317.725 113.254C318.179 113.063 318.523 112.807 318.758 112.485C318.992 112.148 319.109 111.76 319.109 111.32Z" fill="#424241"/>
<path d="M1363 15C1363 6.71573 1356.28 0 1348 0H1134V167H1348C1356.28 167 1363 160.284 1363 152V15Z" fill="#DD0000"/>
<path fill-rule="evenodd" clip-rule="evenodd" d="M1203 49C1203 47.8954 1203.9 47 1205 47H1292.5C1293.6 47 1294.5 47.8954 1294.5 49V118.996C1294.5 120.101 1293.6 120.996 1292.5 120.996H1205C1203.9 120.996 1203 120.101 1203 118.996V49ZM1207 51V55.4945H1290.5V51H1207ZM1290.5 59.4945H1235.44V116.996H1290.5V59.4945ZM1231.44 116.996V59.4945H1207V116.996H1231.44Z" fill="white"/>
<path fill-rule="evenodd" clip-rule="evenodd" d="M1209.97 64.8004C1209.97 63.6958 1210.87 62.8004 1211.97 62.8004H1225.97C1227.08 62.8004 1227.97 63.6958 1227.97 64.8004V84.1956C1227.97 85.3001 1227.08 86.1956 1225.97 86.1956H1211.97C1210.87 86.1956 1209.97 85.3001 1209.97 84.1956V64.8004ZM1213.97 66.8004V82.1956H1223.97V66.8004H1213.97ZM1239.58 65.6964C1239.58 64.5918 1240.47 63.6964 1241.58 63.6964H1284.5C1285.61 63.6964 1286.5 64.5918 1286.5 65.6964V111.905C1286.5 113.01 1285.61 113.905 1284.5 113.905H1241.58C1240.47 113.905 1239.58 113.01 1239.58 111.905V65.6964ZM1243.58 67.6964V109.905H1282.5V67.6964H1243.58ZM1209.81 95.9363C1209.81 94.8317 1210.71 93.9363 1211.81 93.9363H1220.73C1221.84 93.9363 1222.73 94.8317 1222.73 95.9363C1222.73 97.0409 1221.84 97.9363 1220.73 97.9363H1211.81C1210.71 97.9363 1209.81 97.0409 1209.81 95.9363ZM1209.81 102.936C1209.81 101.832 1210.71 100.936 1211.81 100.936H1226.35C1227.46 100.936 1228.35 101.832 1228.35 102.936C1228.35 104.041 1227.46 104.936 1226.35 104.936H1211.81C1210.71 104.936 1209.81 104.041 1209.81 102.936ZM1209.81 109.936C1209.81 108.832 1210.71 107.936 1211.81 107.936H1220.73C1221.84 107.936 1222.73 108.832 1222.73 109.936C1222.73 111.041 1221.84 111.936 1220.73 111.936H1211.81C1210.71 111.936 1209.81 111.041 1209.81 109.936Z" fill="white"/>
</svg>
