<svg width="1363" height="301" viewBox="0 0 1363 301" fill="none" xmlns="http://www.w3.org/2000/svg">
<rect width="1363" height="301" rx="15" fill="#F0F0F0"/>
<path d="M0 15C0 6.71573 6.71573 0 15 0H37V301H15C6.71573 301 0 294.284 0 286V15Z" fill="#DD0000"/>
<path d="M115.123 133.607C115.123 132.998 115.033 132.452 114.854 131.969C114.675 131.467 114.344 131.002 113.86 130.572C113.377 130.143 112.679 129.713 111.766 129.283C110.87 128.836 109.689 128.37 108.221 127.887C106.502 127.314 104.846 126.669 103.252 125.953C101.659 125.219 100.236 124.369 98.9824 123.402C97.7292 122.417 96.7355 121.271 96.0015 119.964C95.2674 118.639 94.9004 117.1 94.9004 115.345C94.9004 113.662 95.2764 112.149 96.0283 110.807C96.7803 109.446 97.8276 108.291 99.1704 107.342C100.531 106.375 102.125 105.641 103.951 105.14C105.777 104.621 107.773 104.361 109.939 104.361C112.804 104.361 115.328 104.863 117.513 105.865C119.715 106.85 121.434 108.255 122.669 110.082C123.922 111.89 124.549 114.029 124.549 116.5H115.176C115.176 115.515 114.97 114.647 114.559 113.895C114.165 113.143 113.565 112.552 112.759 112.123C111.954 111.693 110.942 111.478 109.725 111.478C108.543 111.478 107.549 111.657 106.744 112.015C105.938 112.373 105.329 112.857 104.917 113.465C104.506 114.056 104.3 114.71 104.3 115.426C104.3 116.017 104.461 116.554 104.783 117.037C105.123 117.503 105.598 117.941 106.207 118.353C106.833 118.765 107.585 119.159 108.462 119.535C109.358 119.911 110.36 120.278 111.47 120.636C113.547 121.298 115.391 122.041 117.002 122.865C118.632 123.67 120.001 124.592 121.111 125.631C122.239 126.651 123.09 127.815 123.663 129.122C124.253 130.429 124.549 131.906 124.549 133.553C124.549 135.308 124.209 136.865 123.528 138.226C122.848 139.587 121.872 140.742 120.601 141.69C119.33 142.621 117.808 143.329 116.036 143.812C114.263 144.295 112.285 144.537 110.101 144.537C108.095 144.537 106.117 144.286 104.166 143.785C102.232 143.266 100.477 142.478 98.9019 141.422C97.3263 140.348 96.0641 138.978 95.1152 137.313C94.1842 135.63 93.7188 133.634 93.7188 131.324H103.172C103.172 132.47 103.324 133.437 103.628 134.225C103.933 135.012 104.38 135.648 104.971 136.131C105.562 136.597 106.287 136.937 107.146 137.152C108.006 137.349 108.991 137.447 110.101 137.447C111.3 137.447 112.267 137.277 113.001 136.937C113.735 136.579 114.272 136.113 114.612 135.541C114.952 134.95 115.123 134.305 115.123 133.607ZM162.496 123.67V125.255C162.496 128.245 162.075 130.93 161.233 133.312C160.41 135.675 159.237 137.698 157.715 139.381C156.194 141.046 154.394 142.326 152.317 143.221C150.241 144.098 147.949 144.537 145.442 144.537C142.918 144.537 140.608 144.098 138.514 143.221C136.437 142.326 134.629 141.046 133.089 139.381C131.567 137.698 130.385 135.675 129.544 133.312C128.72 130.93 128.309 128.245 128.309 125.255V123.67C128.309 120.681 128.72 117.995 129.544 115.614C130.385 113.233 131.558 111.209 133.062 109.544C134.584 107.861 136.383 106.581 138.46 105.704C140.555 104.809 142.864 104.361 145.389 104.361C147.895 104.361 150.187 104.809 152.264 105.704C154.358 106.581 156.167 107.861 157.688 109.544C159.21 111.209 160.392 113.233 161.233 115.614C162.075 117.995 162.496 120.681 162.496 123.67ZM152.935 125.255V123.617C152.935 121.683 152.765 119.982 152.425 118.514C152.103 117.028 151.619 115.784 150.975 114.781C150.33 113.779 149.533 113.027 148.584 112.525C147.653 112.006 146.588 111.747 145.389 111.747C144.135 111.747 143.043 112.006 142.112 112.525C141.181 113.027 140.403 113.779 139.776 114.781C139.149 115.784 138.675 117.028 138.353 118.514C138.048 119.982 137.896 121.683 137.896 123.617V125.255C137.896 127.171 138.048 128.871 138.353 130.357C138.675 131.826 139.149 133.07 139.776 134.09C140.42 135.111 141.208 135.881 142.139 136.4C143.088 136.919 144.189 137.179 145.442 137.179C146.642 137.179 147.707 136.919 148.638 136.4C149.569 135.881 150.348 135.111 150.975 134.09C151.619 133.07 152.103 131.826 152.425 130.357C152.765 128.871 152.935 127.171 152.935 125.255ZM187.525 133.607C187.525 132.998 187.435 132.452 187.256 131.969C187.077 131.467 186.746 131.002 186.263 130.572C185.779 130.143 185.081 129.713 184.168 129.283C183.273 128.836 182.091 128.37 180.623 127.887C178.904 127.314 177.248 126.669 175.655 125.953C174.061 125.219 172.638 124.369 171.385 123.402C170.132 122.417 169.138 121.271 168.404 119.964C167.67 118.639 167.303 117.1 167.303 115.345C167.303 113.662 167.679 112.149 168.431 110.807C169.183 109.446 170.23 108.291 171.573 107.342C172.933 106.375 174.527 105.641 176.353 105.14C178.179 104.621 180.175 104.361 182.342 104.361C185.206 104.361 187.731 104.863 189.915 105.865C192.117 106.85 193.836 108.255 195.071 110.082C196.325 111.89 196.951 114.029 196.951 116.5H187.579C187.579 115.515 187.373 114.647 186.961 113.895C186.567 113.143 185.967 112.552 185.162 112.123C184.356 111.693 183.344 111.478 182.127 111.478C180.945 111.478 179.952 111.657 179.146 112.015C178.34 112.373 177.732 112.857 177.32 113.465C176.908 114.056 176.702 114.71 176.702 115.426C176.702 116.017 176.863 116.554 177.186 117.037C177.526 117.503 178 117.941 178.609 118.353C179.236 118.765 179.987 119.159 180.865 119.535C181.76 119.911 182.763 120.278 183.873 120.636C185.949 121.298 187.793 122.041 189.405 122.865C191.034 123.67 192.404 124.592 193.514 125.631C194.642 126.651 195.492 127.815 196.065 129.122C196.656 130.429 196.951 131.906 196.951 133.553C196.951 135.308 196.611 136.865 195.931 138.226C195.25 139.587 194.275 140.742 193.003 141.69C191.732 142.621 190.21 143.329 188.438 143.812C186.666 144.295 184.687 144.537 182.503 144.537C180.498 144.537 178.519 144.286 176.568 143.785C174.634 143.266 172.88 142.478 171.304 141.422C169.729 140.348 168.466 138.978 167.518 137.313C166.587 135.63 166.121 133.634 166.121 131.324H175.574C175.574 132.47 175.726 133.437 176.031 134.225C176.335 135.012 176.783 135.648 177.374 136.131C177.964 136.597 178.689 136.937 179.549 137.152C180.408 137.349 181.393 137.447 182.503 137.447C183.702 137.447 184.669 137.277 185.403 136.937C186.137 136.579 186.674 136.113 187.015 135.541C187.355 134.95 187.525 134.305 187.525 133.607Z" fill="black"/>
<path d="M104.288 72.3608V55.1172H109.397V72.3608C109.397 74.0243 109.033 75.4541 108.304 76.6504C107.575 77.8353 106.578 78.7467 105.313 79.3848C104.06 80.0228 102.647 80.3418 101.075 80.3418C99.4455 80.3418 98.0042 80.0684 96.751 79.5215C95.4977 78.9746 94.5122 78.1372 93.7944 77.0093C93.0767 75.87 92.7178 74.4287 92.7178 72.6855H97.8618C97.8618 73.597 97.9871 74.3205 98.2378 74.856C98.4998 75.3914 98.8701 75.7731 99.3486 76.001C99.8271 76.2288 100.403 76.3428 101.075 76.3428C101.724 76.3428 102.288 76.189 102.767 75.8813C103.245 75.5737 103.615 75.1237 103.877 74.5312C104.151 73.9388 104.288 73.2153 104.288 72.3608ZM121.976 80.3418C120.54 80.3418 119.253 80.1139 118.113 79.6582C116.974 79.1911 116.006 78.5474 115.208 77.7271C114.422 76.9067 113.818 75.9554 113.396 74.873C112.975 73.7793 112.764 72.6172 112.764 71.3867V70.7031C112.764 69.3018 112.964 68.02 113.362 66.8579C113.761 65.6958 114.331 64.6875 115.071 63.833C115.823 62.9785 116.735 62.3234 117.806 61.8677C118.877 61.4006 120.084 61.167 121.429 61.167C122.739 61.167 123.901 61.3835 124.915 61.8164C125.929 62.2493 126.778 62.8646 127.461 63.6621C128.156 64.4596 128.681 65.4167 129.034 66.5332C129.387 67.6383 129.563 68.8688 129.563 70.2246V72.2754H114.866V68.9941H124.727V68.6182C124.727 67.9346 124.602 67.325 124.351 66.7896C124.112 66.2427 123.747 65.8097 123.257 65.4907C122.767 65.1717 122.141 65.0122 121.377 65.0122C120.728 65.0122 120.17 65.1546 119.703 65.4395C119.236 65.7243 118.854 66.123 118.558 66.6357C118.273 67.1484 118.056 67.7523 117.908 68.4473C117.771 69.1309 117.703 69.8828 117.703 70.7031V71.3867C117.703 72.1273 117.806 72.8109 118.011 73.4375C118.227 74.0641 118.529 74.6053 118.917 75.061C119.315 75.5168 119.794 75.87 120.352 76.1206C120.922 76.3713 121.565 76.4966 122.283 76.4966C123.172 76.4966 123.998 76.3257 124.761 75.9839C125.536 75.6307 126.202 75.1009 126.761 74.3945L129.153 76.9922C128.766 77.5505 128.236 78.0859 127.564 78.5986C126.903 79.1113 126.106 79.5329 125.171 79.8633C124.237 80.1823 123.172 80.3418 121.976 80.3418ZM142.347 75.8301V67.5928C142.347 67.0003 142.25 66.4933 142.056 66.0718C141.862 65.6388 141.561 65.3027 141.15 65.0635C140.752 64.8242 140.233 64.7046 139.595 64.7046C139.048 64.7046 138.576 64.8014 138.177 64.9951C137.778 65.1774 137.47 65.4451 137.254 65.7983C137.037 66.1401 136.929 66.5446 136.929 67.0117H132.007C132.007 66.2256 132.19 65.4793 132.554 64.7729C132.919 64.0666 133.449 63.4456 134.144 62.9102C134.839 62.3633 135.665 61.936 136.622 61.6284C137.59 61.3208 138.672 61.167 139.869 61.167C141.304 61.167 142.58 61.4062 143.697 61.8848C144.813 62.3633 145.691 63.0811 146.329 64.0381C146.978 64.9951 147.303 66.1914 147.303 67.627V75.5396C147.303 76.5535 147.365 77.3853 147.491 78.0347C147.616 78.6727 147.798 79.231 148.038 79.7095V80H143.064C142.825 79.4987 142.643 78.8721 142.518 78.1201C142.404 77.3568 142.347 76.5934 142.347 75.8301ZM142.996 68.7378L143.03 71.5234H140.279C139.629 71.5234 139.065 71.5975 138.587 71.7456C138.108 71.8937 137.715 72.1045 137.408 72.3779C137.1 72.64 136.872 72.9476 136.724 73.3008C136.587 73.654 136.519 74.0413 136.519 74.4629C136.519 74.8844 136.616 75.2661 136.81 75.6079C137.003 75.9383 137.282 76.2004 137.647 76.394C138.012 76.5763 138.439 76.6675 138.929 76.6675C139.669 76.6675 140.313 76.5194 140.86 76.2231C141.407 75.9269 141.828 75.5623 142.125 75.1294C142.432 74.6965 142.592 74.2863 142.603 73.8989L143.902 75.9839C143.72 76.451 143.469 76.9352 143.15 77.4365C142.842 77.9378 142.449 78.4106 141.971 78.855C141.492 79.2879 140.917 79.6468 140.245 79.9316C139.572 80.2051 138.775 80.3418 137.852 80.3418C136.679 80.3418 135.613 80.1082 134.656 79.6411C133.711 79.1626 132.959 78.5075 132.4 77.6758C131.854 76.8327 131.58 75.8757 131.58 74.8047C131.58 73.8363 131.762 72.9761 132.127 72.2241C132.492 71.4722 133.027 70.8398 133.733 70.3271C134.451 69.8031 135.346 69.41 136.417 69.1479C137.487 68.8745 138.729 68.7378 140.142 68.7378H142.996ZM155.916 65.4565V80H150.994V61.5088H155.608L155.916 65.4565ZM155.198 70.105H153.865C153.865 68.7378 154.042 67.5073 154.395 66.4136C154.748 65.3084 155.244 64.3685 155.882 63.5938C156.52 62.8076 157.278 62.2095 158.155 61.7993C159.043 61.3778 160.035 61.167 161.128 61.167C161.994 61.167 162.786 61.2923 163.504 61.543C164.222 61.7936 164.837 62.1924 165.35 62.7393C165.874 63.2861 166.272 64.0096 166.546 64.9097C166.831 65.8097 166.973 66.9092 166.973 68.208V80H162.017V68.1909C162.017 67.3706 161.903 66.7326 161.675 66.2769C161.447 65.8211 161.111 65.5021 160.667 65.3198C160.234 65.1261 159.699 65.0293 159.061 65.0293C158.4 65.0293 157.824 65.1603 157.334 65.4224C156.856 65.6844 156.457 66.049 156.138 66.5161C155.831 66.9718 155.597 67.5073 155.438 68.1226C155.278 68.7378 155.198 69.3986 155.198 70.105ZM189.429 71.1304H183.089V67.1313H189.429C190.409 67.1313 191.207 66.9718 191.822 66.6528C192.437 66.3224 192.887 65.8667 193.172 65.2856C193.457 64.7046 193.599 64.0495 193.599 63.3203C193.599 62.5798 193.457 61.8905 193.172 61.2524C192.887 60.6144 192.437 60.1017 191.822 59.7144C191.207 59.327 190.409 59.1333 189.429 59.1333H184.866V80H179.739V55.1172H189.429C191.377 55.1172 193.047 55.4704 194.437 56.1768C195.838 56.8717 196.909 57.8345 197.649 59.0649C198.39 60.2954 198.76 61.7025 198.76 63.2861C198.76 64.8926 198.39 66.2826 197.649 67.4561C196.909 68.6296 195.838 69.5353 194.437 70.1733C193.047 70.8114 191.377 71.1304 189.429 71.1304ZM211.766 75.8301V67.5928C211.766 67.0003 211.669 66.4933 211.475 66.0718C211.281 65.6388 210.979 65.3027 210.569 65.0635C210.171 64.8242 209.652 64.7046 209.014 64.7046C208.467 64.7046 207.994 64.8014 207.596 64.9951C207.197 65.1774 206.889 65.4451 206.673 65.7983C206.456 66.1401 206.348 66.5446 206.348 67.0117H201.426C201.426 66.2256 201.609 65.4793 201.973 64.7729C202.338 64.0666 202.868 63.4456 203.562 62.9102C204.257 62.3633 205.083 61.936 206.041 61.6284C207.009 61.3208 208.091 61.167 209.288 61.167C210.723 61.167 211.999 61.4062 213.116 61.8848C214.232 62.3633 215.11 63.0811 215.748 64.0381C216.397 64.9951 216.722 66.1914 216.722 67.627V75.5396C216.722 76.5535 216.784 77.3853 216.91 78.0347C217.035 78.6727 217.217 79.231 217.457 79.7095V80H212.483C212.244 79.4987 212.062 78.8721 211.937 78.1201C211.823 77.3568 211.766 76.5934 211.766 75.8301ZM212.415 68.7378L212.449 71.5234H209.698C209.048 71.5234 208.484 71.5975 208.006 71.7456C207.527 71.8937 207.134 72.1045 206.827 72.3779C206.519 72.64 206.291 72.9476 206.143 73.3008C206.006 73.654 205.938 74.0413 205.938 74.4629C205.938 74.8844 206.035 75.2661 206.229 75.6079C206.422 75.9383 206.701 76.2004 207.066 76.394C207.431 76.5763 207.858 76.6675 208.348 76.6675C209.088 76.6675 209.732 76.5194 210.279 76.2231C210.826 75.9269 211.247 75.5623 211.543 75.1294C211.851 74.6965 212.011 74.2863 212.022 73.8989L213.321 75.9839C213.139 76.451 212.888 76.9352 212.569 77.4365C212.261 77.9378 211.868 78.4106 211.39 78.855C210.911 79.2879 210.336 79.6468 209.664 79.9316C208.991 80.2051 208.194 80.3418 207.271 80.3418C206.097 80.3418 205.032 80.1082 204.075 79.6411C203.13 79.1626 202.378 78.5075 201.819 77.6758C201.272 76.8327 200.999 75.8757 200.999 74.8047C200.999 73.8363 201.181 72.9761 201.546 72.2241C201.91 71.4722 202.446 70.8398 203.152 70.3271C203.87 69.8031 204.764 69.41 205.835 69.1479C206.906 68.8745 208.148 68.7378 209.561 68.7378H212.415ZM231.453 75.5737V61.5088H236.375V80H231.744L231.453 75.5737ZM232 71.7798L233.453 71.7456C233.453 72.9761 233.31 74.1211 233.025 75.1807C232.741 76.2288 232.313 77.1403 231.744 77.915C231.174 78.6784 230.456 79.2765 229.59 79.7095C228.724 80.131 227.705 80.3418 226.531 80.3418C225.631 80.3418 224.799 80.2165 224.036 79.9658C223.284 79.7038 222.635 79.2993 222.088 78.7524C221.552 78.1942 221.131 77.4821 220.823 76.6162C220.527 75.7389 220.379 74.6851 220.379 73.4546V61.5088H225.301V73.4888C225.301 74.0356 225.363 74.4971 225.489 74.873C225.625 75.249 225.813 75.5566 226.053 75.7959C226.292 76.0352 226.571 76.2061 226.89 76.3086C227.221 76.4111 227.585 76.4624 227.984 76.4624C228.998 76.4624 229.795 76.2573 230.376 75.8472C230.969 75.437 231.385 74.8787 231.624 74.1724C231.875 73.4546 232 72.6571 232 71.7798ZM245.33 53.75V80H240.391V53.75H245.33ZM268.538 59.3726L261.771 80H256.319L265.564 55.1172H269.034L268.538 59.3726ZM274.161 80L267.376 59.3726L266.829 55.1172H270.333L279.629 80H274.161ZM273.853 70.7373V74.7534H260.711V70.7373H273.853ZM281.629 53.75H286.551V75.7617L286.055 80H281.629V53.75ZM298.257 70.5664V70.9253C298.257 72.3039 298.109 73.5685 297.813 74.7192C297.528 75.87 297.084 76.8669 296.48 77.71C295.876 78.5417 295.124 79.1911 294.224 79.6582C293.335 80.1139 292.287 80.3418 291.08 80.3418C289.952 80.3418 288.972 80.1139 288.14 79.6582C287.32 79.2025 286.631 78.5588 286.072 77.7271C285.514 76.8953 285.064 75.9212 284.722 74.8047C284.38 73.6882 284.124 72.4691 283.953 71.1475V70.3613C284.124 69.0397 284.38 67.8206 284.722 66.7041C285.064 65.5876 285.514 64.6134 286.072 63.7817C286.631 62.95 287.32 62.3063 288.14 61.8506C288.96 61.3949 289.929 61.167 291.045 61.167C292.264 61.167 293.324 61.4006 294.224 61.8677C295.136 62.3234 295.888 62.9728 296.48 63.8159C297.084 64.6476 297.528 65.6388 297.813 66.7896C298.109 67.9289 298.257 69.1878 298.257 70.5664ZM293.335 70.9253V70.5664C293.335 69.8145 293.278 69.1081 293.165 68.4473C293.062 67.7751 292.88 67.1883 292.618 66.687C292.356 66.1743 291.997 65.7699 291.541 65.4736C291.097 65.1774 290.521 65.0293 289.815 65.0293C289.143 65.0293 288.573 65.1432 288.106 65.3711C287.639 65.599 287.251 65.918 286.944 66.3281C286.648 66.7383 286.425 67.2282 286.277 67.7979C286.129 68.3561 286.038 68.9714 286.004 69.6436V71.8823C286.038 72.7824 286.186 73.5799 286.448 74.2749C286.722 74.9585 287.132 75.4997 287.679 75.8984C288.237 76.2858 288.96 76.4795 289.849 76.4795C290.544 76.4795 291.119 76.3428 291.575 76.0693C292.031 75.7959 292.384 75.4085 292.635 74.9072C292.897 74.4059 293.079 73.8192 293.182 73.147C293.284 72.4634 293.335 71.7228 293.335 70.9253ZM306.512 61.5088V80H301.573V61.5088H306.512ZM301.265 56.6895C301.265 55.9717 301.516 55.3792 302.017 54.9121C302.518 54.445 303.191 54.2114 304.034 54.2114C304.865 54.2114 305.532 54.445 306.033 54.9121C306.546 55.3792 306.802 55.9717 306.802 56.6895C306.802 57.4072 306.546 57.9997 306.033 58.4668C305.532 58.9339 304.865 59.1675 304.034 59.1675C303.191 59.1675 302.518 58.9339 302.017 58.4668C301.516 57.9997 301.265 57.4072 301.265 56.6895ZM337.598 76.001V80H319.961V76.001H337.598ZM337.342 57.9712L322.234 80H318.628V77.0605L333.855 55.1172H337.342V57.9712ZM335.582 55.1172V59.1333H318.646V55.1172H335.582ZM348.689 80.3418C347.254 80.3418 345.966 80.1139 344.827 79.6582C343.688 79.1911 342.719 78.5474 341.922 77.7271C341.136 76.9067 340.532 75.9554 340.11 74.873C339.689 73.7793 339.478 72.6172 339.478 71.3867V70.7031C339.478 69.3018 339.677 68.02 340.076 66.8579C340.475 65.6958 341.045 64.6875 341.785 63.833C342.537 62.9785 343.449 62.3234 344.52 61.8677C345.59 61.4006 346.798 61.167 348.143 61.167C349.453 61.167 350.615 61.3835 351.629 61.8164C352.643 62.2493 353.492 62.8646 354.175 63.6621C354.87 64.4596 355.394 65.4167 355.748 66.5332C356.101 67.6383 356.277 68.8688 356.277 70.2246V72.2754H341.58V68.9941H351.441V68.6182C351.441 67.9346 351.316 67.325 351.065 66.7896C350.826 66.2427 350.461 65.8097 349.971 65.4907C349.481 65.1717 348.855 65.0122 348.091 65.0122C347.442 65.0122 346.884 65.1546 346.417 65.4395C345.949 65.7243 345.568 66.123 345.271 66.6357C344.987 67.1484 344.77 67.7523 344.622 68.4473C344.485 69.1309 344.417 69.8828 344.417 70.7031V71.3867C344.417 72.1273 344.52 72.8109 344.725 73.4375C344.941 74.0641 345.243 74.6053 345.63 75.061C346.029 75.5168 346.508 75.87 347.066 76.1206C347.636 76.3713 348.279 76.4966 348.997 76.4966C349.886 76.4966 350.712 76.3257 351.475 75.9839C352.25 75.6307 352.916 75.1009 353.475 74.3945L355.867 76.9922C355.48 77.5505 354.95 78.0859 354.278 78.5986C353.617 79.1113 352.819 79.5329 351.885 79.8633C350.951 80.1823 349.886 80.3418 348.689 80.3418ZM364.275 61.5088V80H359.336V61.5088H364.275ZM359.029 56.6895C359.029 55.9717 359.279 55.3792 359.781 54.9121C360.282 54.445 360.954 54.2114 361.797 54.2114C362.629 54.2114 363.296 54.445 363.797 54.9121C364.31 55.3792 364.566 55.9717 364.566 56.6895C364.566 57.4072 364.31 57.9997 363.797 58.4668C363.296 58.9339 362.629 59.1675 361.797 59.1675C360.954 59.1675 360.282 58.9339 359.781 58.4668C359.279 57.9997 359.029 57.4072 359.029 56.6895ZM379.263 75.9668V53.75H384.219V80H379.759L379.263 75.9668ZM367.574 70.9766V70.6177C367.574 69.2049 367.733 67.9232 368.052 66.7725C368.371 65.6104 368.838 64.6134 369.454 63.7817C370.069 62.95 370.826 62.3063 371.727 61.8506C372.627 61.3949 373.652 61.167 374.803 61.167C375.885 61.167 376.831 61.3949 377.64 61.8506C378.46 62.3063 379.155 62.9557 379.725 63.7988C380.306 64.6305 380.773 65.616 381.126 66.7554C381.479 67.8833 381.736 69.1195 381.895 70.4639V71.25C381.736 72.5374 381.479 73.7337 381.126 74.8389C380.773 75.944 380.306 76.9124 379.725 77.7441C379.155 78.5645 378.46 79.2025 377.64 79.6582C376.819 80.1139 375.862 80.3418 374.769 80.3418C373.618 80.3418 372.592 80.1082 371.692 79.6411C370.804 79.174 370.052 78.5189 369.437 77.6758C368.833 76.8327 368.371 75.8415 368.052 74.7021C367.733 73.5628 367.574 72.321 367.574 70.9766ZM372.496 70.6177V70.9766C372.496 71.7399 372.553 72.452 372.667 73.1128C372.792 73.7736 372.991 74.3604 373.265 74.873C373.549 75.3743 373.914 75.7674 374.358 76.0522C374.814 76.3257 375.367 76.4624 376.016 76.4624C376.859 76.4624 377.554 76.2744 378.101 75.8984C378.648 75.5111 379.064 74.9813 379.349 74.3091C379.645 73.6369 379.816 72.8621 379.861 71.9849V69.7461C379.827 69.0283 379.725 68.3846 379.554 67.8149C379.394 67.2339 379.155 66.7383 378.836 66.3281C378.528 65.918 378.141 65.599 377.674 65.3711C377.218 65.1432 376.677 65.0293 376.05 65.0293C375.412 65.0293 374.865 65.1774 374.41 65.4736C373.954 65.7585 373.584 66.1515 373.299 66.6528C373.025 67.1541 372.82 67.7466 372.684 68.4302C372.558 69.1024 372.496 69.8315 372.496 70.6177Z" fill="#888888"/>
<rect x="92" y="181" width="1179" height="80" rx="13.3333" fill="#CCCCCC"/>
<rect x="107" y="196.333" width="208" height="49.3333" rx="4.66667" fill="#888888" stroke="#888888" stroke-width="4"/>
<path d="M150.833 213.167H156.802C157.969 213.167 158.983 213.34 159.844 213.687C160.705 214.035 161.368 214.549 161.833 215.229C162.306 215.91 162.542 216.75 162.542 217.75C162.542 218.618 162.406 219.344 162.135 219.927C161.865 220.51 161.486 220.993 161 221.375C160.521 221.75 159.962 222.059 159.323 222.302L158.125 222.979H153.115L153.094 220.156H156.802C157.267 220.156 157.653 220.073 157.958 219.906C158.264 219.74 158.493 219.503 158.646 219.198C158.806 218.885 158.885 218.514 158.885 218.083C158.885 217.646 158.806 217.271 158.646 216.958C158.486 216.646 158.25 216.406 157.937 216.24C157.632 216.073 157.253 215.99 156.802 215.99H154.49V228.333H150.833V213.167ZM159.135 228.333L155.781 221.625L159.656 221.604L163.052 228.177V228.333H159.135ZM170.042 228.542C169.125 228.542 168.306 228.399 167.583 228.115C166.861 227.823 166.25 227.424 165.75 226.917C165.257 226.41 164.878 225.826 164.615 225.167C164.358 224.507 164.229 223.809 164.229 223.073V222.677C164.229 221.851 164.344 221.087 164.573 220.385C164.802 219.677 165.142 219.059 165.594 218.531C166.045 218.003 166.611 217.594 167.292 217.302C167.972 217.003 168.764 216.854 169.667 216.854C170.465 216.854 171.181 216.983 171.813 217.24C172.444 217.497 172.979 217.865 173.417 218.344C173.861 218.823 174.198 219.403 174.427 220.083C174.663 220.764 174.781 221.528 174.781 222.375V223.802H165.573V221.604H171.354V221.333C171.361 220.958 171.295 220.639 171.156 220.375C171.024 220.111 170.83 219.91 170.573 219.771C170.316 219.632 170.003 219.562 169.635 219.562C169.253 219.562 168.938 219.646 168.688 219.812C168.444 219.979 168.253 220.208 168.115 220.5C167.983 220.785 167.889 221.115 167.833 221.49C167.778 221.865 167.75 222.26 167.75 222.677V223.073C167.75 223.49 167.806 223.868 167.917 224.208C168.035 224.549 168.201 224.84 168.417 225.083C168.639 225.319 168.903 225.503 169.208 225.635C169.521 225.767 169.875 225.833 170.271 225.833C170.75 225.833 171.222 225.743 171.688 225.562C172.153 225.382 172.552 225.083 172.885 224.667L174.479 226.562C174.25 226.889 173.924 227.205 173.5 227.51C173.083 227.816 172.583 228.066 172 228.26C171.417 228.448 170.764 228.542 170.042 228.542ZM182.063 225.5V220.854C182.063 220.535 182.017 220.26 181.927 220.031C181.837 219.802 181.694 219.625 181.5 219.5C181.306 219.368 181.045 219.302 180.719 219.302C180.455 219.302 180.229 219.347 180.042 219.437C179.854 219.528 179.712 219.663 179.615 219.844C179.517 220.024 179.469 220.253 179.469 220.531H175.958C175.958 220.01 176.073 219.528 176.302 219.083C176.538 218.632 176.872 218.24 177.302 217.906C177.74 217.573 178.26 217.316 178.865 217.135C179.476 216.948 180.156 216.854 180.906 216.854C181.802 216.854 182.601 217.003 183.302 217.302C184.01 217.601 184.569 218.049 184.979 218.646C185.389 219.236 185.594 219.979 185.594 220.875V225.49C185.594 226.226 185.635 226.785 185.719 227.167C185.802 227.542 185.92 227.872 186.073 228.156V228.333H182.552C182.385 227.986 182.26 227.562 182.177 227.062C182.101 226.556 182.063 226.035 182.063 225.5ZM182.49 221.448L182.51 223.323H180.958C180.632 223.323 180.354 223.368 180.125 223.458C179.903 223.549 179.722 223.674 179.583 223.833C179.451 223.986 179.354 224.16 179.292 224.354C179.236 224.549 179.208 224.753 179.208 224.969C179.208 225.177 179.257 225.365 179.354 225.531C179.458 225.691 179.597 225.816 179.771 225.906C179.944 225.997 180.139 226.042 180.354 226.042C180.743 226.042 181.073 225.969 181.344 225.823C181.622 225.67 181.833 225.486 181.979 225.271C182.125 225.056 182.198 224.854 182.198 224.667L182.969 226.104C182.83 226.382 182.67 226.663 182.49 226.948C182.316 227.233 182.097 227.497 181.833 227.74C181.576 227.976 181.26 228.17 180.885 228.323C180.51 228.469 180.056 228.542 179.521 228.542C178.826 228.542 178.188 228.399 177.604 228.115C177.028 227.83 176.566 227.434 176.219 226.927C175.872 226.413 175.698 225.823 175.698 225.156C175.698 224.573 175.802 224.052 176.01 223.594C176.226 223.135 176.549 222.747 176.979 222.427C177.41 222.108 177.958 221.865 178.625 221.698C179.292 221.531 180.076 221.448 180.979 221.448H182.49ZM192.302 225.833C192.628 225.833 192.906 225.774 193.135 225.656C193.372 225.531 193.549 225.358 193.667 225.135C193.792 224.906 193.851 224.632 193.844 224.312H197.146C197.153 225.16 196.944 225.903 196.521 226.542C196.104 227.174 195.535 227.667 194.812 228.021C194.097 228.368 193.288 228.542 192.385 228.542C191.503 228.542 190.733 228.399 190.073 228.115C189.413 227.823 188.861 227.42 188.417 226.906C187.979 226.385 187.649 225.778 187.427 225.083C187.212 224.389 187.104 223.635 187.104 222.823V222.583C187.104 221.771 187.212 221.017 187.427 220.323C187.649 219.622 187.979 219.014 188.417 218.5C188.861 217.979 189.41 217.576 190.062 217.292C190.722 217 191.49 216.854 192.365 216.854C193.302 216.854 194.128 217.031 194.844 217.385C195.566 217.74 196.132 218.253 196.542 218.927C196.951 219.601 197.153 220.417 197.146 221.375H193.844C193.851 221.035 193.799 220.729 193.687 220.458C193.576 220.187 193.403 219.972 193.167 219.812C192.937 219.646 192.642 219.562 192.281 219.562C191.92 219.562 191.628 219.642 191.406 219.802C191.184 219.962 191.014 220.184 190.896 220.469C190.785 220.747 190.708 221.066 190.667 221.427C190.632 221.788 190.615 222.174 190.615 222.583V222.823C190.615 223.24 190.632 223.632 190.667 224C190.708 224.361 190.788 224.681 190.906 224.958C191.024 225.229 191.194 225.444 191.417 225.604C191.639 225.757 191.934 225.833 192.302 225.833ZM204.583 217.062V219.5H197.792V217.062H204.583ZM199.219 214.26H202.729V224.656C202.729 224.955 202.764 225.187 202.833 225.354C202.903 225.514 203.021 225.628 203.188 225.698C203.361 225.76 203.59 225.792 203.875 225.792C204.076 225.792 204.243 225.788 204.375 225.781C204.507 225.767 204.632 225.75 204.75 225.729V228.24C204.451 228.337 204.139 228.41 203.813 228.458C203.486 228.514 203.139 228.542 202.771 228.542C202.021 228.542 201.378 228.424 200.844 228.187C200.316 227.951 199.913 227.58 199.635 227.073C199.358 226.566 199.219 225.906 199.219 225.094V214.26ZM224.125 213.167V228.333H220.479L215.115 218.896V228.333H211.458V213.167H215.115L220.479 222.604V213.167H224.125ZM232.125 225.5V220.854C232.125 220.535 232.08 220.26 231.99 220.031C231.899 219.802 231.757 219.625 231.563 219.5C231.368 219.368 231.108 219.302 230.781 219.302C230.517 219.302 230.292 219.347 230.104 219.437C229.917 219.528 229.774 219.663 229.677 219.844C229.58 220.024 229.531 220.253 229.531 220.531H226.021C226.021 220.01 226.135 219.528 226.365 219.083C226.601 218.632 226.934 218.24 227.365 217.906C227.802 217.573 228.323 217.316 228.927 217.135C229.538 216.948 230.219 216.854 230.969 216.854C231.865 216.854 232.663 217.003 233.365 217.302C234.073 217.601 234.632 218.049 235.042 218.646C235.451 219.236 235.656 219.979 235.656 220.875V225.49C235.656 226.226 235.698 226.785 235.781 227.167C235.865 227.542 235.983 227.872 236.135 228.156V228.333H232.615C232.448 227.986 232.323 227.562 232.24 227.062C232.163 226.556 232.125 226.035 232.125 225.5ZM232.552 221.448L232.573 223.323H231.021C230.694 223.323 230.417 223.368 230.188 223.458C229.965 223.549 229.785 223.674 229.646 223.833C229.514 223.986 229.417 224.16 229.354 224.354C229.299 224.549 229.271 224.753 229.271 224.969C229.271 225.177 229.319 225.365 229.417 225.531C229.521 225.691 229.66 225.816 229.833 225.906C230.007 225.997 230.201 226.042 230.417 226.042C230.806 226.042 231.135 225.969 231.406 225.823C231.684 225.67 231.896 225.486 232.042 225.271C232.188 225.056 232.26 224.854 232.26 224.667L233.031 226.104C232.892 226.382 232.733 226.663 232.552 226.948C232.378 227.233 232.16 227.497 231.896 227.74C231.639 227.976 231.323 228.17 230.948 228.323C230.573 228.469 230.118 228.542 229.583 228.542C228.889 228.542 228.25 228.399 227.667 228.115C227.09 227.83 226.628 227.434 226.281 226.927C225.934 226.413 225.76 225.823 225.76 225.156C225.76 224.573 225.865 224.052 226.073 223.594C226.288 223.135 226.611 222.747 227.042 222.427C227.472 222.108 228.021 221.865 228.688 221.698C229.354 221.531 230.139 221.448 231.042 221.448H232.552ZM243.542 217.062V219.5H236.75V217.062H243.542ZM238.177 214.26H241.687V224.656C241.687 224.955 241.722 225.187 241.792 225.354C241.861 225.514 241.979 225.628 242.146 225.698C242.319 225.76 242.549 225.792 242.833 225.792C243.035 225.792 243.201 225.788 243.333 225.781C243.465 225.767 243.59 225.75 243.708 225.729V228.24C243.41 228.337 243.097 228.41 242.771 228.458C242.444 228.514 242.097 228.542 241.729 228.542C240.979 228.542 240.337 228.424 239.802 228.187C239.274 227.951 238.872 227.58 238.594 227.073C238.316 226.566 238.177 225.906 238.177 225.094V214.26ZM248.646 217.062V228.333H245.125V217.062H248.646ZM244.917 214.156C244.917 213.656 245.097 213.247 245.458 212.927C245.819 212.608 246.288 212.448 246.865 212.448C247.441 212.448 247.91 212.608 248.271 212.927C248.632 213.247 248.813 213.656 248.813 214.156C248.813 214.656 248.632 215.066 248.271 215.385C247.91 215.705 247.441 215.865 246.865 215.865C246.288 215.865 245.819 215.705 245.458 215.385C245.097 215.066 244.917 214.656 244.917 214.156ZM254.875 225.927L257.094 217.062H260.792L257.104 228.333H254.917L254.875 225.927ZM253.563 217.062L255.75 225.927L255.729 228.333H253.531L249.854 217.062H253.563ZM267.146 228.542C266.229 228.542 265.41 228.399 264.688 228.115C263.965 227.823 263.354 227.424 262.854 226.917C262.361 226.41 261.983 225.826 261.719 225.167C261.462 224.507 261.333 223.809 261.333 223.073V222.677C261.333 221.851 261.448 221.087 261.677 220.385C261.906 219.677 262.247 219.059 262.698 218.531C263.149 218.003 263.715 217.594 264.396 217.302C265.076 217.003 265.868 216.854 266.771 216.854C267.569 216.854 268.285 216.983 268.917 217.24C269.549 217.497 270.083 217.865 270.521 218.344C270.965 218.823 271.302 219.403 271.531 220.083C271.767 220.764 271.885 221.528 271.885 222.375V223.802H262.677V221.604H268.458V221.333C268.465 220.958 268.399 220.639 268.26 220.375C268.128 220.111 267.934 219.91 267.677 219.771C267.42 219.632 267.108 219.562 266.74 219.562C266.358 219.562 266.042 219.646 265.792 219.812C265.549 219.979 265.358 220.208 265.219 220.5C265.087 220.785 264.993 221.115 264.938 221.49C264.882 221.865 264.854 222.26 264.854 222.677V223.073C264.854 223.49 264.91 223.868 265.021 224.208C265.139 224.549 265.306 224.84 265.521 225.083C265.743 225.319 266.007 225.503 266.313 225.635C266.625 225.767 266.979 225.833 267.375 225.833C267.854 225.833 268.326 225.743 268.792 225.562C269.257 225.382 269.656 225.083 269.99 224.667L271.583 226.562C271.354 226.889 271.028 227.205 270.604 227.51C270.188 227.816 269.688 228.066 269.104 228.26C268.521 228.448 267.868 228.542 267.146 228.542Z" fill="white"/>
<rect x="339" y="196.333" width="208" height="49.3333" rx="4.66667" fill="#888888" stroke="#888888" stroke-width="4"/>
<path d="M419.073 225.521V228.333H411.406V225.521H419.073ZM412.708 213.167V228.333H409.052V213.167H412.708ZM426.302 225.5V220.854C426.302 220.535 426.257 220.26 426.167 220.031C426.076 219.802 425.934 219.625 425.74 219.5C425.545 219.368 425.285 219.302 424.958 219.302C424.694 219.302 424.469 219.347 424.281 219.437C424.094 219.528 423.951 219.663 423.854 219.844C423.757 220.024 423.708 220.253 423.708 220.531H420.198C420.198 220.01 420.312 219.528 420.542 219.083C420.778 218.632 421.111 218.24 421.542 217.906C421.979 217.573 422.5 217.316 423.104 217.135C423.715 216.948 424.396 216.854 425.146 216.854C426.042 216.854 426.84 217.003 427.542 217.302C428.25 217.601 428.809 218.049 429.219 218.646C429.628 219.236 429.833 219.979 429.833 220.875V225.49C429.833 226.226 429.875 226.785 429.958 227.167C430.042 227.542 430.16 227.872 430.312 228.156V228.333H426.792C426.625 227.986 426.5 227.562 426.417 227.062C426.34 226.556 426.302 226.035 426.302 225.5ZM426.729 221.448L426.75 223.323H425.198C424.872 223.323 424.594 223.368 424.365 223.458C424.142 223.549 423.962 223.674 423.823 223.833C423.691 223.986 423.594 224.16 423.531 224.354C423.476 224.549 423.448 224.753 423.448 224.969C423.448 225.177 423.497 225.365 423.594 225.531C423.698 225.691 423.837 225.816 424.01 225.906C424.184 225.997 424.378 226.042 424.594 226.042C424.983 226.042 425.312 225.969 425.583 225.823C425.861 225.67 426.073 225.486 426.219 225.271C426.365 225.056 426.437 224.854 426.437 224.667L427.208 226.104C427.069 226.382 426.91 226.663 426.729 226.948C426.556 227.233 426.337 227.497 426.073 227.74C425.816 227.976 425.5 228.17 425.125 228.323C424.75 228.469 424.295 228.542 423.76 228.542C423.066 228.542 422.427 228.399 421.844 228.115C421.267 227.83 420.806 227.434 420.458 226.927C420.111 226.413 419.937 225.823 419.937 225.156C419.937 224.573 420.042 224.052 420.25 223.594C420.465 223.135 420.788 222.747 421.219 222.427C421.649 222.108 422.198 221.865 422.865 221.698C423.531 221.531 424.316 221.448 425.219 221.448H426.729ZM435.323 219.854V228.333H431.812V217.062H435.094L435.323 219.854ZM438.656 216.979L438.594 220.24C438.455 220.226 438.267 220.208 438.031 220.187C437.795 220.167 437.597 220.156 437.437 220.156C437.028 220.156 436.674 220.205 436.375 220.302C436.083 220.392 435.84 220.531 435.646 220.719C435.458 220.899 435.319 221.128 435.229 221.406C435.146 221.684 435.108 222.007 435.115 222.375L434.479 221.958C434.479 221.201 434.552 220.514 434.698 219.896C434.851 219.271 435.066 218.733 435.344 218.281C435.622 217.823 435.958 217.472 436.354 217.229C436.75 216.979 437.194 216.854 437.687 216.854C437.861 216.854 438.031 216.865 438.198 216.885C438.372 216.906 438.524 216.937 438.656 216.979ZM445.406 225.5V220.854C445.406 220.535 445.361 220.26 445.271 220.031C445.181 219.802 445.038 219.625 444.844 219.5C444.649 219.368 444.389 219.302 444.063 219.302C443.799 219.302 443.573 219.347 443.385 219.437C443.198 219.528 443.056 219.663 442.958 219.844C442.861 220.024 442.813 220.253 442.813 220.531H439.302C439.302 220.01 439.417 219.528 439.646 219.083C439.882 218.632 440.215 218.24 440.646 217.906C441.083 217.573 441.604 217.316 442.208 217.135C442.819 216.948 443.5 216.854 444.25 216.854C445.146 216.854 445.944 217.003 446.646 217.302C447.354 217.601 447.913 218.049 448.323 218.646C448.733 219.236 448.938 219.979 448.938 220.875V225.49C448.938 226.226 448.979 226.785 449.063 227.167C449.146 227.542 449.264 227.872 449.417 228.156V228.333H445.896C445.729 227.986 445.604 227.562 445.521 227.062C445.444 226.556 445.406 226.035 445.406 225.5ZM445.833 221.448L445.854 223.323H444.302C443.976 223.323 443.698 223.368 443.469 223.458C443.247 223.549 443.066 223.674 442.927 223.833C442.795 223.986 442.698 224.16 442.635 224.354C442.58 224.549 442.552 224.753 442.552 224.969C442.552 225.177 442.601 225.365 442.698 225.531C442.802 225.691 442.941 225.816 443.115 225.906C443.288 225.997 443.483 226.042 443.698 226.042C444.087 226.042 444.417 225.969 444.688 225.823C444.965 225.67 445.177 225.486 445.323 225.271C445.469 225.056 445.542 224.854 445.542 224.667L446.313 226.104C446.174 226.382 446.014 226.663 445.833 226.948C445.66 227.233 445.441 227.497 445.177 227.74C444.92 227.976 444.604 228.17 444.229 228.323C443.854 228.469 443.399 228.542 442.865 228.542C442.17 228.542 441.531 228.399 440.948 228.115C440.372 227.83 439.91 227.434 439.563 226.927C439.215 226.413 439.042 225.823 439.042 225.156C439.042 224.573 439.146 224.052 439.354 223.594C439.569 223.135 439.892 222.747 440.323 222.427C440.753 222.108 441.302 221.865 441.969 221.698C442.635 221.531 443.42 221.448 444.323 221.448H445.833ZM454.781 225.927L457 217.062H460.698L457.01 228.333H454.823L454.781 225.927ZM453.469 217.062L455.656 225.927L455.635 228.333H453.437L449.76 217.062H453.469ZM467.052 228.542C466.135 228.542 465.316 228.399 464.594 228.115C463.872 227.823 463.26 227.424 462.76 226.917C462.267 226.41 461.889 225.826 461.625 225.167C461.368 224.507 461.24 223.809 461.24 223.073V222.677C461.24 221.851 461.354 221.087 461.583 220.385C461.812 219.677 462.153 219.059 462.604 218.531C463.056 218.003 463.622 217.594 464.302 217.302C464.983 217.003 465.774 216.854 466.677 216.854C467.476 216.854 468.191 216.983 468.823 217.24C469.455 217.497 469.99 217.865 470.427 218.344C470.872 218.823 471.208 219.403 471.437 220.083C471.674 220.764 471.792 221.528 471.792 222.375V223.802H462.583V221.604H468.365V221.333C468.372 220.958 468.306 220.639 468.167 220.375C468.035 220.111 467.84 219.91 467.583 219.771C467.326 219.632 467.014 219.562 466.646 219.562C466.264 219.562 465.948 219.646 465.698 219.812C465.455 219.979 465.264 220.208 465.125 220.5C464.993 220.785 464.899 221.115 464.844 221.49C464.788 221.865 464.76 222.26 464.76 222.677V223.073C464.76 223.49 464.816 223.868 464.927 224.208C465.045 224.549 465.212 224.84 465.427 225.083C465.649 225.319 465.913 225.503 466.219 225.635C466.531 225.767 466.885 225.833 467.281 225.833C467.76 225.833 468.233 225.743 468.698 225.562C469.163 225.382 469.562 225.083 469.896 224.667L471.49 226.562C471.26 226.889 470.934 227.205 470.51 227.51C470.094 227.816 469.594 228.066 469.01 228.26C468.427 228.448 467.774 228.542 467.052 228.542ZM476.927 212.333V228.333H473.406V212.333H476.927Z" fill="white"/>
<rect x="571" y="196.333" width="208" height="49.3333" rx="4.66667" fill="#888888" stroke="#888888" stroke-width="4"/>
<path d="M638.333 213.167V228.333H634.677V213.167H638.333ZM644.229 219.479V222.292H637.292V219.479H644.229ZM644.823 213.167V215.99H637.292V213.167H644.823ZM649.885 217.062V228.333H646.365V217.062H649.885ZM646.156 214.156C646.156 213.656 646.337 213.247 646.698 212.927C647.059 212.608 647.528 212.448 648.104 212.448C648.681 212.448 649.149 212.608 649.51 212.927C649.872 213.247 650.052 213.656 650.052 214.156C650.052 214.656 649.872 215.066 649.51 215.385C649.149 215.705 648.681 215.865 648.104 215.865C647.528 215.865 647.059 215.705 646.698 215.385C646.337 215.066 646.156 214.656 646.156 214.156ZM655.594 219.854V228.333H652.083V217.062H655.365L655.594 219.854ZM658.927 216.979L658.865 220.24C658.726 220.226 658.538 220.208 658.302 220.187C658.066 220.167 657.868 220.156 657.708 220.156C657.299 220.156 656.944 220.205 656.646 220.302C656.354 220.392 656.111 220.531 655.917 220.719C655.729 220.899 655.59 221.128 655.5 221.406C655.417 221.684 655.378 222.007 655.385 222.375L654.75 221.958C654.75 221.201 654.823 220.514 654.969 219.896C655.122 219.271 655.337 218.733 655.615 218.281C655.892 217.823 656.229 217.472 656.625 217.229C657.021 216.979 657.465 216.854 657.958 216.854C658.132 216.854 658.302 216.865 658.469 216.885C658.642 216.906 658.795 216.937 658.927 216.979ZM665.385 228.542C664.469 228.542 663.649 228.399 662.927 228.115C662.205 227.823 661.594 227.424 661.094 226.917C660.601 226.41 660.222 225.826 659.958 225.167C659.701 224.507 659.573 223.809 659.573 223.073V222.677C659.573 221.851 659.688 221.087 659.917 220.385C660.146 219.677 660.486 219.059 660.938 218.531C661.389 218.003 661.955 217.594 662.635 217.302C663.316 217.003 664.108 216.854 665.01 216.854C665.809 216.854 666.524 216.983 667.156 217.24C667.788 217.497 668.323 217.865 668.76 218.344C669.205 218.823 669.542 219.403 669.771 220.083C670.007 220.764 670.125 221.528 670.125 222.375V223.802H660.917V221.604H666.698V221.333C666.705 220.958 666.639 220.639 666.5 220.375C666.368 220.111 666.174 219.91 665.917 219.771C665.66 219.632 665.347 219.562 664.979 219.562C664.597 219.562 664.281 219.646 664.031 219.812C663.788 219.979 663.597 220.208 663.458 220.5C663.326 220.785 663.233 221.115 663.177 221.49C663.122 221.865 663.094 222.26 663.094 222.677V223.073C663.094 223.49 663.149 223.868 663.26 224.208C663.378 224.549 663.545 224.84 663.76 225.083C663.983 225.319 664.247 225.503 664.552 225.635C664.865 225.767 665.219 225.833 665.615 225.833C666.094 225.833 666.566 225.743 667.031 225.562C667.497 225.382 667.896 225.083 668.229 224.667L669.823 226.562C669.594 226.889 669.267 227.205 668.844 227.51C668.427 227.816 667.927 228.066 667.344 228.26C666.76 228.448 666.108 228.542 665.385 228.542ZM671.583 212.333H675.094V225.562L674.729 228.333H671.583V212.333ZM682.01 222.573V222.792C682.01 223.646 681.924 224.424 681.75 225.125C681.576 225.826 681.309 226.434 680.948 226.948C680.587 227.455 680.132 227.847 679.583 228.125C679.035 228.403 678.385 228.542 677.635 228.542C676.955 228.542 676.372 228.396 675.885 228.104C675.399 227.806 674.993 227.396 674.667 226.875C674.34 226.347 674.076 225.74 673.875 225.052C673.674 224.358 673.514 223.615 673.396 222.823V222.562C673.514 221.778 673.674 221.042 673.875 220.354C674.076 219.66 674.34 219.052 674.667 218.531C674.993 218.003 675.396 217.594 675.875 217.302C676.361 217.003 676.941 216.854 677.615 216.854C678.372 216.854 679.024 216.997 679.573 217.281C680.128 217.566 680.587 217.965 680.948 218.479C681.309 218.993 681.576 219.597 681.75 220.292C681.924 220.986 682.01 221.747 682.01 222.573ZM678.5 222.792V222.573C678.5 222.163 678.476 221.778 678.427 221.417C678.378 221.056 678.292 220.736 678.167 220.458C678.042 220.181 677.865 219.962 677.635 219.802C677.406 219.642 677.108 219.562 676.74 219.562C676.365 219.562 676.049 219.625 675.792 219.75C675.542 219.875 675.34 220.056 675.188 220.292C675.042 220.521 674.938 220.806 674.875 221.146C674.813 221.479 674.785 221.858 674.792 222.281V223.104C674.778 223.681 674.83 224.174 674.948 224.583C675.066 224.993 675.271 225.306 675.563 225.521C675.854 225.736 676.253 225.844 676.76 225.844C677.135 225.844 677.438 225.771 677.667 225.625C677.903 225.479 678.08 225.271 678.198 225C678.316 224.729 678.396 224.406 678.438 224.031C678.479 223.656 678.5 223.243 678.5 222.792ZM689.427 225.5V220.854C689.427 220.535 689.382 220.26 689.292 220.031C689.201 219.802 689.059 219.625 688.865 219.5C688.67 219.368 688.41 219.302 688.083 219.302C687.819 219.302 687.594 219.347 687.406 219.437C687.219 219.528 687.076 219.663 686.979 219.844C686.882 220.024 686.833 220.253 686.833 220.531H683.323C683.323 220.01 683.437 219.528 683.667 219.083C683.903 218.632 684.236 218.24 684.667 217.906C685.104 217.573 685.625 217.316 686.229 217.135C686.84 216.948 687.521 216.854 688.271 216.854C689.167 216.854 689.965 217.003 690.667 217.302C691.375 217.601 691.934 218.049 692.344 218.646C692.753 219.236 692.958 219.979 692.958 220.875V225.49C692.958 226.226 693 226.785 693.083 227.167C693.167 227.542 693.285 227.872 693.437 228.156V228.333H689.917C689.75 227.986 689.625 227.562 689.542 227.062C689.465 226.556 689.427 226.035 689.427 225.5ZM689.854 221.448L689.875 223.323H688.323C687.997 223.323 687.719 223.368 687.49 223.458C687.267 223.549 687.087 223.674 686.948 223.833C686.816 223.986 686.719 224.16 686.656 224.354C686.601 224.549 686.573 224.753 686.573 224.969C686.573 225.177 686.622 225.365 686.719 225.531C686.823 225.691 686.962 225.816 687.135 225.906C687.309 225.997 687.503 226.042 687.719 226.042C688.108 226.042 688.437 225.969 688.708 225.823C688.986 225.67 689.198 225.486 689.344 225.271C689.49 225.056 689.562 224.854 689.562 224.667L690.333 226.104C690.194 226.382 690.035 226.663 689.854 226.948C689.681 227.233 689.462 227.497 689.198 227.74C688.941 227.976 688.625 228.17 688.25 228.323C687.875 228.469 687.42 228.542 686.885 228.542C686.191 228.542 685.552 228.399 684.969 228.115C684.392 227.83 683.931 227.434 683.583 226.927C683.236 226.413 683.062 225.823 683.062 225.156C683.062 224.573 683.167 224.052 683.375 223.594C683.59 223.135 683.913 222.747 684.344 222.427C684.774 222.108 685.323 221.865 685.99 221.698C686.656 221.531 687.441 221.448 688.344 221.448H689.854ZM700.812 225.167C700.812 224.972 700.747 224.806 700.615 224.667C700.49 224.521 700.267 224.389 699.948 224.271C699.628 224.146 699.181 224.021 698.604 223.896C698.056 223.778 697.538 223.622 697.052 223.427C696.573 223.233 696.153 222.997 695.792 222.719C695.431 222.441 695.146 222.111 694.937 221.729C694.736 221.347 694.635 220.91 694.635 220.417C694.635 219.937 694.736 219.486 694.937 219.062C695.146 218.632 695.448 218.253 695.844 217.927C696.247 217.594 696.736 217.333 697.312 217.146C697.889 216.951 698.545 216.854 699.281 216.854C700.295 216.854 701.17 217.01 701.906 217.323C702.642 217.628 703.208 218.059 703.604 218.615C704.007 219.163 704.208 219.799 704.208 220.521H700.698C700.698 220.236 700.649 219.993 700.552 219.792C700.462 219.59 700.312 219.437 700.104 219.333C699.896 219.222 699.618 219.167 699.271 219.167C699.028 219.167 698.806 219.212 698.604 219.302C698.41 219.392 698.253 219.517 698.135 219.677C698.017 219.837 697.958 220.024 697.958 220.24C697.958 220.392 697.993 220.531 698.062 220.656C698.139 220.774 698.253 220.885 698.406 220.99C698.559 221.087 698.753 221.177 698.99 221.26C699.226 221.337 699.51 221.406 699.844 221.469C700.601 221.608 701.309 221.806 701.969 222.062C702.628 222.319 703.163 222.684 703.573 223.156C703.99 223.628 704.198 224.264 704.198 225.062C704.198 225.562 704.083 226.024 703.854 226.448C703.625 226.865 703.295 227.233 702.865 227.552C702.434 227.865 701.917 228.108 701.312 228.281C700.708 228.455 700.028 228.542 699.271 228.542C698.194 228.542 697.285 228.351 696.542 227.969C695.799 227.58 695.236 227.094 694.854 226.51C694.479 225.92 694.292 225.323 694.292 224.719H697.562C697.576 225.066 697.66 225.351 697.812 225.573C697.972 225.795 698.184 225.958 698.448 226.062C698.712 226.167 699.017 226.219 699.365 226.219C699.684 226.219 699.948 226.174 700.156 226.083C700.372 225.993 700.535 225.872 700.646 225.719C700.757 225.559 700.812 225.375 700.812 225.167ZM711.302 228.542C710.385 228.542 709.566 228.399 708.844 228.115C708.122 227.823 707.51 227.424 707.01 226.917C706.517 226.41 706.139 225.826 705.875 225.167C705.618 224.507 705.49 223.809 705.49 223.073V222.677C705.49 221.851 705.604 221.087 705.833 220.385C706.062 219.677 706.403 219.059 706.854 218.531C707.306 218.003 707.872 217.594 708.552 217.302C709.233 217.003 710.024 216.854 710.927 216.854C711.726 216.854 712.441 216.983 713.073 217.24C713.705 217.497 714.24 217.865 714.677 218.344C715.122 218.823 715.458 219.403 715.687 220.083C715.924 220.764 716.042 221.528 716.042 222.375V223.802H706.833V221.604H712.615V221.333C712.622 220.958 712.556 220.639 712.417 220.375C712.285 220.111 712.09 219.91 711.833 219.771C711.576 219.632 711.264 219.562 710.896 219.562C710.514 219.562 710.198 219.646 709.948 219.812C709.705 219.979 709.514 220.208 709.375 220.5C709.243 220.785 709.149 221.115 709.094 221.49C709.038 221.865 709.01 222.26 709.01 222.677V223.073C709.01 223.49 709.066 223.868 709.177 224.208C709.295 224.549 709.462 224.84 709.677 225.083C709.899 225.319 710.163 225.503 710.469 225.635C710.781 225.767 711.135 225.833 711.531 225.833C712.01 225.833 712.483 225.743 712.948 225.562C713.413 225.382 713.812 225.083 714.146 224.667L715.74 226.562C715.51 226.889 715.184 227.205 714.76 227.51C714.344 227.816 713.844 228.066 713.26 228.26C712.677 228.448 712.024 228.542 711.302 228.542Z" fill="white"/>
</svg>
